<svg width="25" height="24" viewBox="0 0 25 24" fill="none" xmlns="http://www.w3.org/2000/svg">
<path d="M2.47333 23.4967C1.79317 23.4967 1.2109 23.2545 0.726542 22.7701C0.242181 22.2858 0 21.7035 0 21.0233V7.42C0 6.73983 0.242181 6.15757 0.726542 5.67321C1.2109 5.18885 1.79317 4.94667 2.47333 4.94667H7.42V2.47333C7.42 1.79317 7.66218 1.2109 8.14654 0.726542C8.6309 0.242181 9.21317 0 9.89333 0H14.84C15.5202 0 16.1024 0.242181 16.5868 0.726542C17.0712 1.2109 17.3133 1.79317 17.3133 2.47333V4.94667H22.26C22.9402 4.94667 23.5224 5.18885 24.0068 5.67321C24.4912 6.15757 24.7333 6.73983 24.7333 7.42V21.0233C24.7333 21.7035 24.4912 22.2858 24.0068 22.7701C23.5224 23.2545 22.9402 23.4967 22.26 23.4967H2.47333ZM9.89333 4.94667H14.84V2.47333H9.89333V4.94667ZM4.94667 7.42H2.47333V21.0233H4.94667V7.42ZM17.3133 21.0233V7.42H7.42V21.0233H17.3133ZM19.7867 7.42V21.0233H22.26V7.42H19.7867Z" fill="white"/>
</svg>
