<svg width="30" height="30" viewBox="0 0 30 30" fill="none" xmlns="http://www.w3.org/2000/svg">
<mask id="mask0_821_452" style="mask-type:alpha" maskUnits="userSpaceOnUse" x="0" y="0" width="30" height="30">
<rect width="29.68" height="29.68" fill="#D9D9D9"/>
</mask>
<g mask="url(#mask0_821_452)">
<path d="M4.94672 25.97C4.26656 25.97 3.68429 25.7278 3.19993 25.2435C2.71557 24.7591 2.47339 24.1768 2.47339 23.4967V9.89333C2.47339 9.21316 2.71557 8.6309 3.19993 8.14654C3.68429 7.66218 4.26656 7.41999 4.94672 7.41999H9.89339V4.94666C9.89339 4.26649 10.1356 3.68423 10.6199 3.19987C11.1043 2.71551 11.6866 2.47333 12.3667 2.47333H17.3134C17.9936 2.47333 18.5758 2.71551 19.0602 3.19987C19.5445 3.68423 19.7867 4.26649 19.7867 4.94666V7.41999H24.7334C25.4136 7.41999 25.9958 7.66218 26.4802 8.14654C26.9645 8.6309 27.2067 9.21316 27.2067 9.89333V23.4967C27.2067 24.1768 26.9645 24.7591 26.4802 25.2435C25.9958 25.7278 25.4136 25.97 24.7334 25.97H4.94672ZM12.3667 7.41999H17.3134V4.94666H12.3667V7.41999ZM7.42006 9.89333H4.94672V23.4967H7.42006V9.89333ZM19.7867 23.4967V9.89333H9.89339V23.4967H19.7867ZM22.2601 9.89333V23.4967H24.7334V9.89333H22.2601Z" fill="#BF6C1F"/>
</g>
</svg>
