<svg width="32" height="32" viewBox="0 0 32 32" fill="none" xmlns="http://www.w3.org/2000/svg">
<path d="M6.30923 0.041296C5.26923 0.167963 4.04257 0.621296 3.14257 1.2213C2.66257 1.5413 1.86257 2.28796 1.48923 2.77463C0.889232 3.5613 0.415899 4.55463 0.175899 5.56129C0.0358987 6.12796 0.029232 6.29463 0.00923202 12.3413C-0.0174347 18.948 -0.00410131 19.3746 0.295899 20.4346C0.962565 22.7813 2.88923 24.7013 5.18257 25.3213L5.72257 25.4613V27.1813C5.72257 29.1413 5.78257 29.488 6.24257 30.1013C7.08257 31.2213 8.4359 31.568 9.74257 31.0013C10.1159 30.8346 10.3959 30.5746 12.7892 28.2013L15.4226 25.5813L20.4226 25.5546L25.4226 25.5346L26.0492 25.3546C28.9359 24.5146 30.9159 22.1746 31.2559 19.2013C31.3092 18.7346 31.3226 16.6946 31.3026 12.3413C31.2826 6.86796 31.2626 6.08796 31.1692 5.69463C30.8092 4.24129 30.2626 3.2013 29.3292 2.2213C28.3026 1.14796 27.1759 0.507963 25.6226 0.127962C25.1959 0.0279636 24.3759 0.0146294 15.9559 0.00129509C10.8959 -0.00537109 6.5559 0.0146294 6.30923 0.041296ZM25.0892 2.9413C26.2959 3.19463 27.4159 4.06129 27.9759 5.17463C28.4692 6.15463 28.4559 5.93463 28.4559 12.7613C28.4559 19.5213 28.4626 19.4346 28.0159 20.3413C27.4826 21.4346 26.4959 22.2546 25.2826 22.6146C24.9292 22.7213 24.3959 22.7346 19.6226 22.768C14.8492 22.8013 14.3359 22.8213 14.1559 22.9213C14.0492 22.9813 12.7559 24.2346 11.2892 25.7013C9.82257 27.1746 8.60257 28.3746 8.5759 28.3746C8.54923 28.3746 8.5159 27.3146 8.50923 26.0213L8.48923 23.6613L8.30923 23.4013C7.98923 22.948 7.76257 22.8413 6.86923 22.7346C5.9959 22.6346 5.54923 22.4946 4.96257 22.1413C4.20257 21.688 3.64923 21.088 3.28923 20.3413C2.84923 19.408 2.8559 19.5813 2.8559 12.7946C2.8559 5.94129 2.84257 6.16796 3.32923 5.17463C3.86923 4.08796 5.00923 3.2013 6.18923 2.94796C6.84923 2.8013 24.4092 2.8013 25.0892 2.9413Z" fill="#FF9029"/>
<path d="M8.74932 10.7346C8.12932 10.8879 7.58265 11.3479 7.30932 11.9412C7.07599 12.4479 7.08932 13.2146 7.34265 13.7212C7.54265 14.1346 7.89599 14.4879 8.33599 14.7212C8.57599 14.8479 8.72265 14.8746 9.25599 14.8746C9.78932 14.8746 9.93599 14.8479 10.176 14.7212C10.616 14.4879 10.9693 14.1346 11.1693 13.7212C11.4227 13.2146 11.436 12.4479 11.2027 11.9412C10.916 11.3212 10.336 10.8546 9.66932 10.7146C9.24932 10.6279 9.18932 10.6279 8.74932 10.7346Z" fill="#FF9029"/>
<path d="M15.1492 10.7346C14.5292 10.8879 13.9826 11.3479 13.7092 11.9412C13.4759 12.4479 13.4892 13.2146 13.7426 13.7212C13.9426 14.1346 14.2959 14.4879 14.7359 14.7212C14.9759 14.8479 15.1226 14.8746 15.6559 14.8746C16.1892 14.8746 16.3359 14.8479 16.5759 14.7212C17.0159 14.4879 17.3692 14.1346 17.5692 13.7212C17.8226 13.2146 17.8359 12.4479 17.6026 11.9412C17.3159 11.3212 16.7359 10.8546 16.0692 10.7146C15.6492 10.6279 15.5892 10.6279 15.1492 10.7346Z" fill="#FF9029"/>
<path d="M21.5491 10.7346C20.9291 10.8879 20.3825 11.3479 20.1091 11.9412C19.8758 12.4479 19.8891 13.2146 20.1425 13.7212C20.3425 14.1346 20.6958 14.4879 21.1358 14.7212C21.3758 14.8479 21.5225 14.8746 22.0558 14.8746C22.5891 14.8746 22.7358 14.8479 22.9758 14.7212C23.4158 14.4879 23.7691 14.1346 23.9691 13.7212C24.2225 13.2146 24.2358 12.4479 24.0025 11.9412C23.7158 11.3212 23.1358 10.8546 22.4691 10.7146C22.0491 10.6279 21.9891 10.6279 21.5491 10.7346Z" fill="#FF9029"/>
</svg>
