<svg width="499" height="179" viewBox="0 0 499 179" fill="none" xmlns="http://www.w3.org/2000/svg">
<g opacity="0.8">
<rect x="47.964" y="125.3" width="11.964" height="71.6" rx="5.98198" transform="rotate(-180 47.964 125.3)" fill="#FFDDBD"/>
<rect x="480.216" y="125.3" width="11.964" height="71.6" rx="5.98198" transform="rotate(-180 480.216 125.3)" fill="#FFDDBD"/>
<rect x="29.964" y="150.36" width="11.964" height="121.72" rx="5.98198" transform="rotate(-180 29.964 150.36)" fill="#FFDDBD"/>
<rect x="498.108" y="179" width="11.964" height="179" rx="5.98198" transform="rotate(-180 498.108 179)" fill="#FFDDBD"/>
<rect x="432.36" y="74.4158" width="11.964" height="28.64" rx="5.98198" fill="#FFDDBD"/>
<rect x="450.306" y="74.4158" width="11.964" height="28.64" rx="5.98198" fill="#FFDDBD"/>
<rect x="89.8922" y="53.7" width="11.964" height="71.6" rx="5.98198" fill="#FFDDBD"/>
<rect x="288.793" y="53.7" width="11.964" height="71.6" rx="5.98198" fill="#FFDDBD"/>
<rect x="342.631" y="53.7" width="11.964" height="86.4831" rx="5.98198" fill="#FFDDBD"/>
<rect x="163.172" y="53.7" width="11.964" height="71.6" rx="5.98198" fill="#FFDDBD"/>
<rect x="217.009" y="53.7" width="11.964" height="71.6" rx="5.98198" fill="#FFDDBD"/>
<rect x="414.415" y="54.3035" width="11.964" height="71.6" rx="5.98198" fill="#FFDDBD"/>
<rect x="107.838" y="28.6399" width="11.964" height="121.72" rx="5.98198" fill="#FFDDBD"/>
<rect x="270.846" y="28.6399" width="11.964" height="121.72" rx="5.98198" fill="#FFDDBD"/>
<rect x="234.955" y="42.9602" width="11.964" height="121.72" rx="5.98198" fill="#FFDDBD"/>
<rect x="125.785" width="11.964" height="179" rx="5.98198" fill="#FFDDBD"/>
<rect x="252.901" width="11.964" height="179" rx="5.98198" fill="#FFDDBD"/>
<rect x="360.576" width="11.964" height="179" rx="5.98198" fill="#FFDDBD"/>
<rect x="378.523" width="11.964" height="179" rx="5.98198" fill="#FFDDBD"/>
<rect x="145.225" y="32.22" width="11.964" height="143.2" rx="5.98198" fill="#FFDDBD"/>
<rect x="71.9459" y="75.1797" width="11.964" height="28.64" rx="5.98198" fill="#FFDDBD"/>
<rect x="53.9459" y="75.1797" width="11.964" height="28.64" rx="5.98198" fill="#FFDDBD"/>
<rect x="181.117" y="75.1797" width="11.964" height="28.64" rx="5.98198" fill="#FFDDBD"/>
<rect x="199.064" y="75.1797" width="11.964" height="28.64" rx="5.98198" fill="#FFDDBD"/>
<rect x="306.739" y="75.1797" width="11.964" height="28.64" rx="5.98198" fill="#FFDDBD"/>
<rect x="324.685" y="75.1797" width="11.964" height="28.64" rx="5.98198" fill="#FFDDBD"/>
<rect x="396.469" y="28.1572" width="11.964" height="121.72" rx="5.98198" fill="#FFDDBD"/>
<rect x="11.964" y="179" width="11.964" height="179" rx="5.98198" transform="rotate(-180 11.964 179)" fill="#FFDDBD"/>
</g>
</svg>
