<svg width="1440" height="734" viewBox="0 0 1440 734" fill="none" xmlns="http://www.w3.org/2000/svg">
<path opacity="0.5" d="M873 415.7C1017.61 477.974 1157.54 419.662 1441 136.2V767.2H873V415.7Z" fill="url(#paint0_linear_237_265)"/>
<path opacity="0.5" d="M347.223 273.5C170.355 273.5 94.5401 316.031 0 438.329V756.5H1441V308.464C1276.54 398.722 1038.16 437.33 963.506 437.33C888.851 437.33 524.091 273.5 347.223 273.5Z" fill="url(#paint1_linear_237_265)"/>
<path opacity="0.6" d="M312.432 319.75C442.025 253.788 666.49 310.521 873 415.696V760.5H0V385.713C118.286 386.28 182.838 385.713 312.432 319.75Z" fill="url(#paint2_linear_237_265)"/>
<g opacity="0.4" filter="url(#filter0_d_237_265)">
<path d="M1444 60.037V780.5H-4V60.5403H-2.99444V779.499H1442.99V60.037H1444Z" fill="#FF9029" fill-opacity="0.5" shape-rendering="crispEdges"/>
<path d="M1264.16 2.50003C1319.53 2.52708 1374.35 21.7209 1443.74 59.9256L1443.25 60.8012C1373.93 22.63 1319.28 3.52754 1264.16 3.50067C1209.03 3.47386 1153.36 22.5229 1081.99 60.8031L1081.98 60.8051C1011.33 98.0076 956.119 117.262 900.876 117.57C845.632 117.878 790.423 99.2408 719.765 60.8061C649.15 26.9191 594.116 9.79821 539.116 9.69508C484.112 9.59199 429.081 26.5089 358.472 60.8129L358.471 60.8119C287.817 96.448 232.617 115.539 177.383 116.158C122.142 116.777 66.9344 98.9209 -3.73683 60.8031L-3.25762 59.9237C67.3432 98.0034 122.375 115.774 177.372 115.157C232.375 114.541 287.411 95.5326 358.025 59.9168L358.03 59.9139C428.7 25.5806 483.893 8.59093 539.118 8.69444C593.479 8.79638 647.814 25.4605 716.917 58.3347L720.218 59.9129L720.23 59.9178L720.242 59.9237C790.839 98.3262 845.873 116.876 900.871 116.569C955.873 116.262 1010.91 97.0963 1081.51 59.9207C1152.95 21.611 1208.79 2.47304 1264.16 2.50003Z" fill="#FF9029" fill-opacity="0.5" shape-rendering="crispEdges"/>
<path d="M1444 60.037V780.5H-4V60.5403H-2.99444V779.499H1442.99V60.037H1444Z" stroke="#FF9029" stroke-opacity="0.7" stroke-width="3" shape-rendering="crispEdges"/>
<path d="M1264.16 2.50003C1319.53 2.52708 1374.35 21.7209 1443.74 59.9256L1443.25 60.8012C1373.93 22.63 1319.28 3.52754 1264.16 3.50067C1209.03 3.47386 1153.36 22.5229 1081.99 60.8031L1081.98 60.8051C1011.33 98.0076 956.119 117.262 900.876 117.57C845.632 117.878 790.423 99.2408 719.765 60.8061C649.15 26.9191 594.116 9.79821 539.116 9.69508C484.112 9.59199 429.081 26.5089 358.472 60.8129L358.471 60.8119C287.817 96.448 232.617 115.539 177.383 116.158C122.142 116.777 66.9344 98.9209 -3.73683 60.8031L-3.25762 59.9237C67.3432 98.0034 122.375 115.774 177.372 115.157C232.375 114.541 287.411 95.5326 358.025 59.9168L358.03 59.9139C428.7 25.5806 483.893 8.59093 539.118 8.69444C593.479 8.79638 647.814 25.4605 716.917 58.3347L720.218 59.9129L720.23 59.9178L720.242 59.9237C790.839 98.3262 845.873 116.876 900.871 116.569C955.873 116.262 1010.91 97.0963 1081.51 59.9207C1152.95 21.611 1208.79 2.47304 1264.16 2.50003Z" stroke="#FF9029" stroke-opacity="0.7" stroke-width="3" shape-rendering="crispEdges"/>
</g>
<defs>
<filter id="filter0_d_237_265" x="-10.7747" y="0" width="1461.56" height="791" filterUnits="userSpaceOnUse" color-interpolation-filters="sRGB">
<feFlood flood-opacity="0" result="BackgroundImageFix"/>
<feColorMatrix in="SourceAlpha" type="matrix" values="0 0 0 0 0 0 0 0 0 0 0 0 0 0 0 0 0 0 127 0" result="hardAlpha"/>
<feOffset dy="4"/>
<feGaussianBlur stdDeviation="2.5"/>
<feComposite in2="hardAlpha" operator="out"/>
<feColorMatrix type="matrix" values="0 0 0 0 1 0 0 0 0 0.866667 0 0 0 0 0.741176 0 0 0 1 0"/>
<feBlend mode="normal" in2="BackgroundImageFix" result="effect1_dropShadow_237_265"/>
<feBlend mode="normal" in="SourceGraphic" in2="effect1_dropShadow_237_265" result="shape"/>
</filter>
<linearGradient id="paint0_linear_237_265" x1="1157" y1="136.2" x2="1157" y2="767.2" gradientUnits="userSpaceOnUse">
<stop stop-color="#FFDDBD"/>
<stop offset="0.625" stop-color="#FF9029"/>
</linearGradient>
<linearGradient id="paint1_linear_237_265" x1="720.5" y1="273.5" x2="720.5" y2="756.5" gradientUnits="userSpaceOnUse">
<stop stop-color="#FFEEDF"/>
<stop offset="1" stop-color="#FFDDBD"/>
</linearGradient>
<linearGradient id="paint2_linear_237_265" x1="436.5" y1="291.5" x2="436.5" y2="760.5" gradientUnits="userSpaceOnUse">
<stop stop-color="#FFEEDF"/>
<stop offset="0.134615" stop-color="#FFDDBD"/>
</linearGradient>
</defs>
</svg>
