<svg width="18" height="24" viewBox="0 0 18 24" fill="none" xmlns="http://www.w3.org/2000/svg">
<path d="M6.02875 13.7579C5.30736 13.0365 4.94667 12.1606 4.94667 11.13V3.71C4.94667 2.67944 5.30736 1.80347 6.02875 1.08208C6.75014 0.360694 7.62611 0 8.65667 0C9.68722 0 10.5632 0.360694 11.2846 1.08208C12.006 1.80347 12.3667 2.67944 12.3667 3.71V11.13C12.3667 12.1606 12.006 13.0365 11.2846 13.7579C10.5632 14.4793 9.68722 14.84 8.65667 14.84C7.62611 14.84 6.75014 14.4793 6.02875 13.7579ZM7.42 23.4967V19.6939C5.27644 19.4054 3.50389 18.4469 2.10233 16.8187C0.700778 15.1904 0 13.2942 0 11.13H2.47333C2.47333 12.8407 3.07621 14.299 4.28196 15.5047C5.48771 16.7105 6.94594 17.3133 8.65667 17.3133C10.3674 17.3133 11.8256 16.7105 13.0314 15.5047C14.2371 14.299 14.84 12.8407 14.84 11.13H17.3133C17.3133 13.2942 16.6126 15.1904 15.211 16.8187C13.8094 18.4469 12.0369 19.4054 9.89333 19.6939V23.4967H7.42ZM9.53779 12.0111C9.77482 11.7741 9.89333 11.4804 9.89333 11.13V3.71C9.89333 3.35961 9.77482 3.0659 9.53779 2.82888C9.30076 2.59185 9.00705 2.47333 8.65667 2.47333C8.30628 2.47333 8.01257 2.59185 7.77554 2.82888C7.53851 3.0659 7.42 3.35961 7.42 3.71V11.13C7.42 11.4804 7.53851 11.7741 7.77554 12.0111C8.01257 12.2482 8.30628 12.3667 8.65667 12.3667C9.00705 12.3667 9.30076 12.2482 9.53779 12.0111Z" fill="white"/>
</svg>
