<svg width="30" height="30" viewBox="0 0 30 30" fill="none" xmlns="http://www.w3.org/2000/svg">
<mask id="mask0_23_30" style="mask-type:alpha" maskUnits="userSpaceOnUse" x="0" y="0" width="30" height="30">
<rect width="29.6842" height="29.6842" fill="#D9D9D9"/>
</mask>
<g mask="url(#mask0_23_30)">
<path d="M11.3479 13.3888C10.3791 12.4199 9.89463 11.2553 9.89463 9.89473C9.89463 8.5342 10.3791 7.36951 11.3479 6.40065C12.3168 5.43179 13.4815 4.94736 14.842 4.94736C16.2025 4.94736 17.3672 5.43179 18.3361 6.40065C19.3049 7.36951 19.7894 8.5342 19.7894 9.89473C19.7894 11.2553 19.3049 12.4199 18.3361 13.3888C17.3672 14.3577 16.2025 14.8421 14.842 14.8421C13.4815 14.8421 12.3168 14.3577 11.3479 13.3888ZM4.94727 24.7368V21.2737C4.94727 20.5728 5.12764 19.9286 5.48838 19.3411C5.84913 18.7536 6.32841 18.3053 6.92621 17.996C8.20428 17.357 9.50297 16.8777 10.8223 16.5582C12.1416 16.2387 13.4815 16.0789 14.842 16.0789C16.2025 16.0789 17.5424 16.2387 18.8617 16.5582C20.181 16.8777 21.4797 17.357 22.7578 17.996C23.3556 18.3053 23.8349 18.7536 24.1956 19.3411C24.5564 19.9286 24.7367 20.5728 24.7367 21.2737V24.7368H4.94727ZM7.42095 22.2631H22.2631V21.2737C22.2631 21.0469 22.2064 20.8408 22.093 20.6553C21.9796 20.4697 21.8302 20.3254 21.6446 20.2224C20.5315 19.6658 19.408 19.2483 18.2742 18.9701C17.1405 18.6918 15.9964 18.5526 14.842 18.5526C13.6876 18.5526 12.5435 18.6918 11.4098 18.9701C10.276 19.2483 9.15253 19.6658 8.03937 20.2224C7.85384 20.3254 7.70439 20.4697 7.59102 20.6553C7.47764 20.8408 7.42095 21.0469 7.42095 21.2737V22.2631ZM16.589 11.6418C17.0735 11.1573 17.3157 10.575 17.3157 9.89473C17.3157 9.21446 17.0735 8.63212 16.589 8.14769C16.1046 7.66326 15.5223 7.42104 14.842 7.42104C14.1617 7.42104 13.5794 7.66326 13.095 8.14769C12.6105 8.63212 12.3683 9.21446 12.3683 9.89473C12.3683 10.575 12.6105 11.1573 13.095 11.6418C13.5794 12.1262 14.1617 12.3684 14.842 12.3684C15.5223 12.3684 16.1046 12.1262 16.589 11.6418Z" fill="#BF6C1F"/>
</g>
</svg>
