<svg width="30" height="30" viewBox="0 0 30 30" fill="none" xmlns="http://www.w3.org/2000/svg">
<mask id="mask0_821_646" style="mask-type:alpha" maskUnits="userSpaceOnUse" x="0" y="0" width="30" height="30">
<rect width="29.6842" height="29.6842" fill="#D9D9D9"/>
</mask>
<g mask="url(#mask0_821_646)">
<path d="M11.348 13.3888C10.3792 12.4199 9.89476 11.2553 9.89476 9.89473C9.89476 8.5342 10.3792 7.36951 11.348 6.40065C12.3169 5.43179 13.4816 4.94736 14.8421 4.94736C16.2027 4.94736 17.3673 5.43179 18.3362 6.40065C19.3051 7.36951 19.7895 8.5342 19.7895 9.89473C19.7895 11.2553 19.3051 12.4199 18.3362 13.3888C17.3673 14.3577 16.2027 14.8421 14.8421 14.8421C13.4816 14.8421 12.3169 14.3577 11.348 13.3888ZM4.94739 24.7368V21.2737C4.94739 20.5728 5.12776 19.9286 5.48851 19.3411C5.84925 18.7536 6.32853 18.3053 6.92634 17.996C8.20441 17.357 9.50309 16.8777 10.8224 16.5582C12.1417 16.2387 13.4816 16.0789 14.8421 16.0789C16.2027 16.0789 17.5426 16.2387 18.8619 16.5582C20.1812 16.8777 21.4798 17.357 22.7579 17.996C23.3557 18.3053 23.835 18.7536 24.1957 19.3411C24.5565 19.9286 24.7369 20.5728 24.7369 21.2737V24.7368H4.94739ZM7.42107 22.2631H22.2632V21.2737C22.2632 21.0469 22.2065 20.8408 22.0931 20.6553C21.9797 20.4697 21.8303 20.3254 21.6448 20.2224C20.5316 19.6658 19.4081 19.2483 18.2744 18.9701C17.1406 18.6918 15.9965 18.5526 14.8421 18.5526C13.6877 18.5526 12.5437 18.6918 11.4099 18.9701C10.2761 19.2483 9.15265 19.6658 8.03949 20.2224C7.85397 20.3254 7.70451 20.4697 7.59114 20.6553C7.47776 20.8408 7.42107 21.0469 7.42107 21.2737V22.2631ZM16.5892 11.6418C17.0736 11.1573 17.3158 10.575 17.3158 9.89473C17.3158 9.21446 17.0736 8.63212 16.5892 8.14769C16.1047 7.66326 15.5224 7.42104 14.8421 7.42104C14.1619 7.42104 13.5795 7.66326 13.0951 8.14769C12.6107 8.63212 12.3684 9.21446 12.3684 9.89473C12.3684 10.575 12.6107 11.1573 13.0951 11.6418C13.5795 12.1262 14.1619 12.3684 14.8421 12.3684C15.5224 12.3684 16.1047 12.1262 16.5892 11.6418Z" fill="#FFEEDF"/>
</g>
</svg>
