<svg width="26" height="26" viewBox="0 0 26 26" fill="none" xmlns="http://www.w3.org/2000/svg">
<path d="M11.4322 0.0326138C6.88821 0.539282 3.14421 3.16861 1.21355 7.20595C0.472214 8.76328 0.072214 10.4006 0.00821395 12.1926C-0.205119 18.1126 3.75755 23.3926 9.50688 24.8593C10.6802 25.1579 11.3255 25.2326 12.6855 25.2273C14.0455 25.2219 14.7869 25.1259 15.9869 24.8006C20.3975 23.5899 23.8109 20.0753 24.9042 15.6326C25.1389 14.6673 25.2349 13.9153 25.2402 12.9819C25.2455 12.0699 25.2242 12.0006 24.8775 11.7446C24.7389 11.6379 24.6589 11.6326 23.5709 11.6326H22.4082L22.2215 11.7766C21.9495 11.9846 21.8695 12.2513 21.8375 13.0726C21.7309 15.8406 20.2855 18.4859 17.9602 20.1553C16.9895 20.8539 15.5282 21.4726 14.2589 21.7233C13.5069 21.8726 11.6242 21.8566 10.8722 21.6966C9.35755 21.3659 8.00821 20.7366 6.84555 19.8139C6.66421 19.6753 6.26955 19.2966 5.96021 18.9766C3.34155 16.2726 2.66421 12.1499 4.27488 8.71528C5.43221 6.25128 7.64555 4.39528 10.2589 3.71261C11.2189 3.46195 11.5709 3.41928 12.6589 3.42461C14.0189 3.42461 15.0162 3.61661 16.1362 4.08595C16.6749 4.30995 17.5602 4.77395 17.5229 4.81128C17.5122 4.82195 16.8562 5.05128 16.0669 5.31261C15.1709 5.61661 14.5895 5.84061 14.5095 5.91528C14.0775 6.32061 14.1522 7.04061 14.6589 7.30195C14.9149 7.42994 22.3282 8.64061 22.6535 8.60328C22.9255 8.57128 23.1229 8.43795 23.2669 8.19261C23.3682 8.02728 23.3842 7.74995 23.5015 4.41661C23.6295 0.928614 23.6295 0.816614 23.5335 0.608614C23.4002 0.309948 23.1122 0.128614 22.7709 0.128614C22.3015 0.128614 22.2269 0.203281 21.4375 1.58995C21.0429 2.27261 20.7175 2.84328 20.7069 2.85395C20.6962 2.86461 20.4455 2.68861 20.1415 2.46461C18.4455 1.21661 16.5682 0.443281 14.4455 0.112614C13.7895 0.011282 12.0455 -0.0367184 11.4322 0.0326138Z" fill="#734112"/>
</svg>
